<svg height="480" version="1.1" width="640" xmlns="http://www.w3.org/2000/svg" style="overflow: hidden; position: relative; left: -0.5px; top: -0.3125px;"><desc style="-webkit-tap-highlight-color: rgba(0, 0, 0, 0);">Created with Raphaël 2.0.1</desc><defs style="-webkit-tap-highlight-color: rgba(0, 0, 0, 0);"></defs><rect x="0" y="0" width="640" height="480" r="0" rx="0" ry="0" fill="#f0f0f0" stroke="none" style="-webkit-tap-highlight-color: rgba(0, 0, 0, 0);"></rect><rect x="472" y="142" width="152" height="52" r="5" rx="5" ry="5" fill="#ffffff" stroke="none" transform="matrix(1,0,0,1,-76,-26)" stroke-width="0" opacity="0.2" style="-webkit-tap-highlight-color: rgba(0, 0, 0, 0); opacity: 0.2;"></rect><rect x="517" y="164" width="41" height="255" r="5" rx="5" ry="5" fill="#ffffff" stroke="none" transform="matrix(1,0,0,1,-20.5,-127.5)" stroke-width="0" opacity="0.2" style="-webkit-tap-highlight-color: rgba(0, 0, 0, 0); opacity: 0.2;"></rect><rect x="263" y="317" width="238" height="277" r="5" rx="5" ry="5" fill="#ffffff" stroke="none" transform="matrix(1,0,0,1,-119,-138.5)" stroke-width="0" opacity="0.2" style="-webkit-tap-highlight-color: rgba(0, 0, 0, 0); opacity: 0.2;"></rect><rect x="146" y="232" width="236" height="214" r="5" rx="5" ry="5" fill="#ffffff" stroke="none" transform="matrix(1,0,0,1,-118,-107)" stroke-width="0" opacity="0.2" style="-webkit-tap-highlight-color: rgba(0, 0, 0, 0); opacity: 0.2;"></rect><rect x="248" y="188" width="63" height="311" r="5" rx="5" ry="5" fill="#ffffff" stroke="none" transform="matrix(1,0,0,1,-31.5,-155.5)" stroke-width="0" opacity="0.2" style="-webkit-tap-highlight-color: rgba(0, 0, 0, 0); opacity: 0.2;"></rect></svg>